Coordinates
version=1
nRows=26
nColumns=22
inDegrees=yes

Units are S.I. units (second, meters, Newtons, ...)
If the header above contains a line with 'inDegrees', this indicates whether rotational values are in degrees (yes) or radians (no).

endheader
time	pelvis_tilt	pelvis_list	pelvis_rotation	pelvis_tx	pelvis_ty	pelvis_tz	hip_flexion_r	hip_adduction_r	hip_rotation_r	knee_angle_r	ankle_angle_r	subtalar_angle_r	hip_flexion_l	hip_adduction_l	hip_rotation_l	knee_angle_l	ankle_angle_l	subtalar_angle_l	lumbar_extension	lumbar_bending	lumbar_rotation
      0.01000000	     -3.35650500	     -6.91535641	      3.77818895	     -1.06868518	      0.97725820	     -0.26822067	      5.71146788	      7.21301218	     -6.74799066	    -14.62473545	     10.46101215	      0.82708719	      3.52376005	     -6.87789260	      5.37408773	     -8.10630279	     11.11308045	     -0.74251482	      2.64078580	      6.27587564	     -4.36518965
      0.02000000	     -3.36232944	     -6.91439639	      3.77777552	     -1.06872541	      0.97726270	     -0.26820994	      5.71800813	      7.20967775	     -6.74891944	    -14.62122817	     10.46125160	      0.82851425	      3.52665814	     -6.88256602	      5.37275608	     -8.09763747	     11.11202513	     -0.74141125	      2.62784872	      6.27494362	     -4.36901842
      0.03000000	     -3.37577227	     -6.91539371	      3.77355655	     -1.06875179	      0.97726297	     -0.26818519	      5.74038384	      7.20777437	     -6.74433366	    -14.63407502	     10.45681076	      0.84444831	      3.51512630	     -6.89288197	      5.37092677	     -8.04990903	     11.09624625	     -0.72437093	      2.62517610	      6.27602943	     -4.39540460
      0.04000000	     -3.38373037	     -6.91436063	      3.77249250	     -1.06880559	      0.97726805	     -0.26816402	      5.74883921	      7.20464470	     -6.74481697	    -14.62771974	     10.45727818	      0.84662523	      3.51997346	     -6.89942686	      5.37129164	     -8.04093454	     11.09512657	     -0.72169878	      2.60887604	      6.27475662	     -4.39550866
      0.05000000	     -3.41689809	     -6.91918866	      3.76092084	     -1.06885081	      0.97725708	     -0.26810655	      5.79195557	      7.20710438	     -6.73095849	    -14.63691855	     10.45299418	      0.92102970	      3.52102986	     -6.91616021	      5.39530350	     -7.97963482	     11.05623493	     -0.62063242	      2.62438231	      6.27558116	     -4.38059545
      0.06000000	     -3.42430260	     -6.91742549	      3.76148236	     -1.06891320	      0.97726230	     -0.26807262	      5.80159570	      7.20424864	     -6.73022580	    -14.63303745	     10.45294331	      0.92286814	      3.52640205	     -6.92342685	      5.39249704	     -7.97098831	     11.05857772	     -0.61821003	      2.60537882	      6.27311213	     -4.38502581
      0.07000000	     -3.45849235	     -6.91727173	      3.75804755	     -1.06899915	      0.97723764	     -0.26801025	      5.86353426	      7.19906925	     -6.72115438	    -14.67102725	     10.46121638	      1.05387971	      3.55801470	     -6.93367841	      5.38296354	     -7.95561192	     11.07838638	     -0.39174199	      2.61678694	      6.26789198	     -4.40832832
      0.08000000	     -3.46541350	     -6.91879317	      3.75774445	     -1.06905804	      0.97724243	     -0.26793698	      5.88424581	      7.20189775	     -6.72144922	    -14.68737229	     10.45517967	      1.05799304	      3.55332399	     -6.94798116	      5.38109603	     -7.92997217	     11.08070442	     -0.38148203	      2.59932155	      6.26584101	     -4.41842098
      0.09000000	     -3.47265975	     -6.91712059	      3.75799010	     -1.06911466	      0.97724704	     -0.26786033	      5.89445017	      7.20284980	     -6.72253482	    -14.68398012	     10.45484401	      1.05882135	      3.55735759	     -6.95715264	      5.38035974	     -7.92129933	     11.08081639	     -0.37915416	      2.58113123	      6.25927969	     -4.42013274
      0.10000000	     -3.48170789	     -6.92102272	      3.75183947	     -1.06917963	      0.97725016	     -0.26775767	      5.93274872	      7.20864623	     -6.72641407	    -14.72601392	     10.44295457	      1.06893175	      3.54561625	     -6.97520312	      5.38679815	     -7.88086942	     11.07032110	     -0.33987019	      2.56465096	      6.25966304	     -4.43826894
      0.11000000	     -3.49948660	     -6.91784385	      3.76021551	     -1.06922779	      0.97724528	     -0.26765536	      5.96762709	      7.20593389	     -6.75142127	    -14.74798733	     10.44698503	      1.10147078	      3.55229320	     -6.98496678	      5.39990201	     -7.85233534	     11.05969517	     -0.18840933	      2.56282893	      6.24603196	     -4.44022664
      0.12000000	     -3.50177685	     -6.91645895	      3.76223181	     -1.06927549	      0.97725104	     -0.26752067	      5.98286540	      7.21277103	     -6.74065621	    -14.76362529	     10.44171548	      1.10369650	      3.55080183	     -6.99755491	      5.39209687	     -7.84269834	     11.06512116	     -0.17874444	      2.54141307	      6.23390389	     -4.46281666
      0.13000000	     -3.50567280	     -6.91655917	      3.75922007	     -1.06931297	      0.97725605	     -0.26737839	      6.00048343	      7.22055109	     -6.73735394	    -14.78212743	     10.43782657	      1.10549750	      3.54576754	     -7.01197365	      5.38581217	     -7.82503786	     11.06381509	     -0.16185552	      2.52139097	      6.22596707	     -4.48149950
      0.14000000	     -3.50996564	     -6.91717413	      3.75569748	     -1.06933925	      0.97726119	     -0.26722465	      6.01833714	      7.23016967	     -6.73556910	    -14.80024937	     10.43606287	      1.10605736	      3.53796982	     -7.02696840	      5.37969555	     -7.80277457	     11.05769449	     -0.13699813	      2.50278466	      6.21862077	     -4.49897988
      0.15000000	     -3.51683403	     -6.91414281	      3.75246453	     -1.06935518	      0.97726114	     -0.26706896	      6.02617483	      7.23717965	     -6.73713795	    -14.79664164	     10.43667899	      1.10607430	      3.54061941	     -7.03572799	      5.37855614	     -7.79616600	     11.05727338	     -0.13377154	      2.48626029	      6.20748113	     -4.50269023
      0.16000000	     -3.52062979	     -6.91694097	      3.74895686	     -1.06934692	      0.97726180	     -0.26688891	      6.04463359	      7.25234372	     -6.72631202	    -14.82121199	     10.43750734	      1.10191394	      3.52632811	     -7.05386795	      5.36715518	     -7.76508330	     11.04635120	     -0.10464333	      2.47024844	      6.20147755	     -4.53452788
      0.17000000	     -3.52768289	     -6.91355873	      3.74481713	     -1.06933727	      0.97725647	     -0.26671055	      6.05096715	      7.26077190	     -6.72825091	    -14.81642863	     10.43868475	      1.10135727	      3.52862741	     -7.06237490	      5.36645254	     -7.75962952	     11.04576032	     -0.10149726	      2.45536221	      6.18987453	     -4.53758903
      0.18000000	     -3.52851957	     -6.92712550	      3.73569391	     -1.06926153	      0.97726203	     -0.26648835	      6.04601039	      7.29347894	     -6.71604082	    -14.81133561	     10.44876051	      1.05518538	      3.49938966	     -7.09592379	      5.36138627	     -7.71393476	     11.02150490	      0.03214501	      2.44260418	      6.19544263	     -4.54978808
      0.19000000	     -3.53585891	     -6.92247399	      3.73622454	     -1.06923146	      0.97724957	     -0.26629965	      6.05180917	      7.30178987	     -6.71634586	    -14.80789490	     10.44810408	      1.05438325	      3.50296753	     -7.10253765	      5.35845000	     -7.70871163	     11.02441786	      0.03354068	      2.42671507	      6.18357867	     -4.55526832
      0.20000000	     -3.54257164	     -6.92102798	      3.74216790	     -1.06915999	      0.97723344	     -0.26609189	      6.05593770	      7.31629698	     -6.71052717	    -14.80895774	     10.44893727	      1.04448429	      3.50126745	     -7.11461500	      5.34548172	     -7.69623036	     11.03362280	      0.04387218	      2.41701113	      6.17327882	     -4.58880735
      0.21000000	     -3.55128021	     -6.91664339	      3.74012740	     -1.06910174	      0.97721531	     -0.26588137	      6.05973728	      7.32613551	     -6.71367073	    -14.80301470	     10.45054993	      1.04269776	      3.50492465	     -7.12197162	      5.34521147	     -7.69230765	     11.03443381	      0.04546755	      2.40296119	      6.16420973	     -4.59269623
      0.22000000	     -3.56212855	     -6.93332572	      3.76055458	     -1.06899983	      0.97718487	     -0.26567067	      6.05256940	      7.36063103	     -6.73373119	    -14.77479830	     10.46792196	      1.00468320	      3.51106065	     -7.15347300	      5.35083871	     -7.68026310	     11.04070173	      0.07127893	      2.40138528	      6.17722284	     -4.64425405
      0.23000000	     -3.57041988	     -6.92835266	      3.76440630	     -1.06892288	      0.97716319	     -0.26543260	      6.05565606	      7.37209441	     -6.73700649	    -14.77145362	     10.46726701	      1.00278368	      3.51534052	     -7.16192056	      5.35199805	     -7.67746396	     11.04185197	      0.07235037	      2.38745424	      6.16502882	     -4.64504814
      0.24000000	     -3.57367873	     -6.95849600	      3.82544330	     -1.06884636	      0.97713262	     -0.26523806	      6.04774990	      7.41863110	     -6.81136284	    -14.74668938	     10.44064029	      0.90583840	      3.53959460	     -7.20670682	      5.42255326	     -7.69439104	     11.06898937	      0.11540927	      2.37641536	      6.19015428	     -4.71917695
      0.25000000	     -3.58362813	     -6.95187937	      3.82894194	     -1.06876656	      0.97710814	     -0.26498641	      6.05156270	      7.42897586	     -6.81497190	    -14.74142894	     10.44263679	      0.90407146	      3.54458034	     -7.21432107	      5.42094775	     -7.68981669	     11.06929506	      0.11578679	      2.36180748	      6.17981225	     -4.72004486
      0.26000000	     -3.59255242	     -6.96320775	      3.86394157	     -1.06866500	      0.97707262	     -0.26475562	      6.04839909	      7.45663527	     -6.86704227	    -14.72388558	     10.47018806	      0.85954022	      3.56351082	     -7.24098116	      5.43393626	     -7.69869521	     11.06957829	      0.12694631	      2.35459057	      6.18846317	     -4.75912841
